<?xml version="1.0" standalone="no"?>
<!DOCTYPE svg PUBLIC "-//W3C//DTD SVG 20010904//EN"
 "http://www.w3.org/TR/2001/REC-SVG-20010904/DTD/svg10.dtd">
<svg version="1.0" xmlns="http://www.w3.org/2000/svg"
 width="140" height="50" viewBox="0 0 613.000000 182.000000"
 preserveAspectRatio="xMidYMid meet">

<g transform="translate(0.000000,182.000000) scale(0.100000,-0.100000)"
fill="#fff" stroke="none">
<path d="M805 1479 c-35 -10 -498 -469 -516 -511 -26 -62 -14 -79 243 -335
134 -133 255 -247 270 -252 59 -22 75 -9 337 253 l251 252 0 44 0 44 -242 244
c-201 202 -288 278 -310 271 -2 0 -16 -5 -33 -10z m3 -258 c18 -11 12 -51 -10
-65 -13 -8 -21 -6 -36 7 -10 9 -33 17 -50 17 l-32 0 0 -195 c0 -167 -2 -195
-15 -195 -13 0 -15 30 -15 210 l0 210 49 0 c28 0 53 5 56 10 8 12 35 13 53 1z
m276 -48 c60 -42 86 -94 86 -173 -1 -149 -95 -230 -267 -230 l-63 0 0 -80 0
-80 -70 0 c-39 0 -79 -5 -89 -12 -26 -16 -51 -3 -51 25 0 35 26 54 51 39 10
-7 41 -12 69 -12 l50 0 0 78 0 77 93 1 c78 0 102 4 143 25 84 41 120 130 94
225 -17 61 -64 100 -140 116 -40 8 -60 17 -60 26 0 26 107 8 154 -25z m-108
-116 c26 -30 32 -83 13 -119 -16 -29 -70 -48 -139 -48 l-60 0 0 101 0 101 81
-4 c74 -3 83 -6 105 -31z"/>
<path d="M820 996 l0 -66 55 0 c84 0 120 47 77 100 -14 18 -32 24 -75 28 l-57
4 0 -66z"/>
<path d="M353 1228 c-246 -247 -262 -269 -248 -325 4 -18 92 -114 248 -271
l242 -242 45 0 c25 0 50 4 57 8 8 5 -58 78 -203 222 -118 118 -222 227 -230
242 -8 15 -14 45 -14 68 0 23 6 53 14 68 8 15 112 124 230 242 145 144 211
217 203 222 -7 4 -32 8 -57 8 l-45 0 -242 -242z"/>
<path d="M4760 1218 c-13 -5 -28 -14 -32 -21 -4 -7 -8 -141 -8 -298 0 -216 3
-289 13 -303 19 -26 76 -24 99 4 16 20 18 45 18 299 0 227 -3 280 -15 298 -18
26 -43 33 -75 21z"/>
<path d="M5452 1219 c-12 -5 -27 -20 -32 -34 -15 -40 -13 -544 3 -575 17 -35
78 -41 100 -9 l16 21 32 -22 c38 -28 113 -37 162 -21 75 25 137 133 137 236 0
110 -63 211 -145 234 -60 16 -79 14 -167 -24 -16 -6 -18 1 -18 76 0 46 -4 89
-8 96 -12 19 -55 31 -80 22z m241 -290 c81 -63 43 -249 -50 -249 -47 0 -72 16
-89 55 -53 128 47 268 139 194z"/>
<path d="M1618 1209 c-16 -6 -31 -22 -37 -41 -14 -40 -15 -490 -1 -539 13 -47
54 -68 96 -47 34 16 42 40 43 139 l1 76 103 5 c66 3 113 10 133 21 121 63 147
237 50 333 -31 32 -54 44 -94 53 -64 13 -256 13 -294 0z m277 -134 c19 -18 25
-35 25 -65 0 -30 -6 -47 -25 -65 -21 -22 -33 -25 -100 -25 l-75 0 0 90 0 90
75 0 c67 0 79 -3 100 -25z"/>
<path d="M3436 1176 c-21 -20 -26 -35 -26 -76 0 -43 -3 -50 -20 -50 -11 0 -27
-11 -36 -25 -15 -23 -15 -27 0 -50 9 -14 25 -25 36 -25 17 0 19 -10 22 -161
l3 -161 28 -24 c23 -20 39 -24 91 -24 48 0 67 4 79 18 32 35 15 82 -28 82 -40
0 -45 18 -45 147 0 118 1 123 21 123 37 0 59 19 59 50 0 31 -22 50 -58 50 -17
0 -20 9 -24 60 -5 66 -10 75 -50 85 -21 5 -33 1 -52 -19z"/>
<path d="M4411 1119 c-50 -10 -124 -43 -141 -65 -10 -11 -10 -17 -1 -28 10
-12 20 -10 60 16 27 16 67 32 90 35 35 5 41 9 41 29 0 13 -1 24 -2 23 -2 -1
-23 -5 -47 -10z"/>
<path d="M4480 1104 c0 -20 5 -24 29 -24 35 0 87 -21 122 -49 23 -18 28 -19
39 -6 10 12 10 18 0 29 -18 22 -90 55 -143 65 -45 8 -47 8 -47 -15z"/>
<path d="M2323 1053 c-13 -2 -36 -21 -53 -41 -25 -31 -30 -33 -30 -16 0 46
-71 72 -104 38 -14 -13 -16 -47 -16 -218 0 -225 3 -237 59 -238 59 -2 71 25
71 158 0 163 22 204 110 204 34 0 60 23 60 54 0 45 -42 70 -97 59z"/>
<path d="M2577 1044 c-122 -38 -187 -185 -141 -320 9 -26 25 -60 36 -74 67
-91 262 -107 340 -29 35 35 34 64 -4 92 l-27 20 -48 -32 c-60 -40 -104 -37
-145 9 -51 55 -43 60 100 61 170 1 176 3 180 59 8 104 -51 196 -141 218 -58
15 -90 14 -150 -4z m118 -99 c29 -11 55 -45 55 -71 0 -2 -43 -4 -95 -4 -52 0
-95 2 -95 5 0 21 30 60 55 71 38 17 39 17 80 -1z"/>
<path d="M3041 1048 c-67 -19 -106 -60 -111 -118 -8 -88 22 -121 143 -158 50
-16 96 -36 101 -45 18 -29 -5 -52 -56 -55 -41 -3 -50 1 -93 38 -35 30 -52 39
-69 34 -45 -13 -59 -61 -30 -102 39 -56 178 -88 271 -63 90 24 138 101 114
181 -15 50 -40 67 -154 105 -50 17 -95 37 -101 47 -16 27 10 48 60 48 35 0 49
-6 74 -30 36 -35 62 -38 90 -10 78 78 -94 170 -239 128z"/>
<path d="M3807 1046 c-59 -16 -97 -50 -97 -87 0 -58 61 -78 103 -34 39 43 137
42 154 -1 9 -24 -10 -36 -88 -51 -119 -22 -143 -31 -174 -63 -26 -27 -30 -39
-30 -90 0 -43 5 -66 21 -87 48 -65 144 -81 230 -38 l49 25 16 -22 c12 -15 27
-21 50 -20 57 1 60 15 57 215 l-3 179 -37 33 c-58 54 -148 68 -251 41z m163
-285 c0 -30 -6 -44 -25 -60 -50 -38 -115 -39 -136 0 -22 41 1 63 91 88 64 17
70 15 70 -28z"/>
<path d="M4420 1049 c-62 -12 -119 -55 -149 -112 -36 -70 -36 -182 0 -252 48
-94 166 -137 276 -101 90 30 139 110 94 155 -12 12 -30 21 -41 21 -18 0 -29
-9 -75 -62 -25 -29 -81 -23 -117 12 -29 30 -30 33 -26 111 3 74 6 83 31 105
42 36 84 32 130 -11 42 -40 68 -44 98 -14 15 15 19 28 14 47 -19 76 -126 122
-235 101z"/>
<path d="M4944 1036 c-18 -13 -19 -28 -19 -188 0 -187 7 -219 59 -253 54 -36
146 -31 194 10 l29 24 11 -24 c10 -21 19 -25 51 -25 59 0 65 17 69 198 6 227
-5 272 -68 272 -52 0 -60 -19 -60 -148 -1 -181 -16 -222 -85 -222 -61 0 -70
23 -73 189 -3 115 -7 150 -19 164 -19 21 -62 22 -89 3z"/>
<path d="M4216 997 c-26 -34 -48 -88 -59 -144 -6 -30 -4 -33 18 -33 19 0 26 7
31 28 10 50 35 110 50 122 18 16 18 34 0 49 -11 10 -19 5 -40 -22z"/>
<path d="M4158 805 c-16 -17 25 -137 66 -190 13 -18 16 -19 31 -5 14 15 13 21
-14 70 -16 30 -32 72 -35 93 -5 26 -12 37 -25 37 -10 0 -20 -2 -23 -5z"/>
<path d="M4264 598 c-11 -17 49 -63 108 -82 67 -21 88 -21 88 3 0 14 -10 21
-37 26 -41 7 -108 39 -118 55 -8 14 -32 13 -41 -2z"/>
<path d="M4645 600 c-11 -17 -81 -49 -124 -56 -31 -5 -41 -11 -41 -25 0 -24
22 -24 94 1 78 26 121 57 105 76 -14 17 -25 18 -34 4z"/>
</g>
</svg>
